<svg class="hidden" xmlns="http://www.w3.org/2000/svg">

<symbol  viewBox="0 0 17 17" id="facebook"><path d="M14.1762 0.823608H2.68022C2.08296 0.823608 1.51015 1.06087 1.08782 1.4832C0.665486 1.90554 0.428223 2.47834 0.428223 3.07561V14.5716C0.428223 15.1689 0.665486 15.7417 1.08782 16.164C1.51015 16.5863 2.08296 16.8236 2.68022 16.8236H7.91222V10.9836H5.93422V8.70561H7.91222V7.02761C7.91222 6.07661 8.17522 5.33761 8.70122 4.81261C9.22722 4.28661 9.94022 4.02261 10.8412 4.02261C11.7432 4.02261 12.3272 4.05761 12.5942 4.12361V6.15161H11.3922C10.9582 6.15161 10.6622 6.24361 10.5032 6.42761C10.3452 6.61061 10.2662 6.88661 10.2662 7.25361V8.70561H12.5192L12.2192 10.9836H10.2662V16.8236H14.1762C14.7735 16.8236 15.3463 16.5863 15.7686 16.164C16.191 15.7417 16.4282 15.1689 16.4282 14.5716V3.07561C16.4282 2.47834 16.191 1.90554 15.7686 1.4832C15.3463 1.06087 14.7735 0.823608 14.1762 0.823608Z" />
</symbol>
                    


<symbol  viewBox="0 0 48 48" id="instagram" >
<path  d="M0 24C0 10.7452 10.7452 0 24 0C37.2548 0 48 10.7452 48 24C48 37.2548 37.2548 48 24 48C10.7452 48 0 37.2548 0 24ZM24.0012 11.2C20.5249 11.2 20.0886 11.2152 18.7233 11.2773C17.3606 11.3397 16.4305 11.5555 15.6166 11.872C14.7747 12.1989 14.0606 12.6363 13.3491 13.348C12.6371 14.0595 12.1997 14.7736 11.8717 15.6152C11.5544 16.4294 11.3384 17.3598 11.2771 18.7219C11.216 20.0873 11.2 20.5238 11.2 24.0001C11.2 27.4764 11.2155 27.9114 11.2773 29.2767C11.34 30.6394 11.5557 31.5695 11.872 32.3834C12.1992 33.2253 12.6365 33.9394 13.3483 34.6509C14.0595 35.3629 14.7736 35.8013 15.615 36.1283C16.4294 36.4448 17.3598 36.6605 18.7222 36.7229C20.0876 36.7851 20.5236 36.8003 23.9996 36.8003C27.4762 36.8003 27.9111 36.7851 29.2765 36.7229C30.6391 36.6605 31.5703 36.4448 32.3848 36.1283C33.2264 35.8013 33.9394 35.3629 34.6506 34.6509C35.3626 33.9394 35.8 33.2253 36.128 32.3837C36.4427 31.5695 36.6587 30.6391 36.7227 29.277C36.784 27.9116 36.8 27.4764 36.8 24.0001C36.8 20.5238 36.784 20.0876 36.7227 18.7222C36.6587 17.3595 36.4427 16.4294 36.128 15.6155C35.8 14.7736 35.3626 14.0595 34.6506 13.348C33.9386 12.636 33.2266 12.1987 32.384 11.872C31.5679 11.5555 30.6373 11.3397 29.2746 11.2773C27.9092 11.2152 27.4746 11.2 23.9972 11.2H24.0012Z" />
<path  d="M22.8529 13.5067C23.1937 13.5062 23.574 13.5067 24.0012 13.5067C27.4188 13.5067 27.8239 13.519 29.1735 13.5803C30.4215 13.6374 31.0989 13.8459 31.5501 14.0211C32.1474 14.2531 32.5733 14.5304 33.021 14.9784C33.469 15.4264 33.7464 15.8531 33.9789 16.4505C34.1541 16.9011 34.3629 17.5785 34.4197 18.8265C34.481 20.1758 34.4944 20.5812 34.4944 23.9972C34.4944 27.4132 34.481 27.8186 34.4197 29.1679C34.3626 30.4159 34.1541 31.0933 33.9789 31.5439C33.7469 32.1413 33.469 32.5666 33.021 33.0144C32.573 33.4624 32.1477 33.7397 31.5501 33.9717C31.0994 34.1477 30.4215 34.3557 29.1735 34.4128C27.8242 34.4741 27.4188 34.4874 24.0012 34.4874C20.5833 34.4874 20.1782 34.4741 18.8289 34.4128C17.5809 34.3552 16.9035 34.1466 16.4521 33.9714C15.8547 33.7394 15.428 33.4621 14.98 33.0141C14.532 32.5661 14.2547 32.1405 14.0222 31.5429C13.847 31.0922 13.6382 30.4149 13.5814 29.1669C13.52 27.8175 13.5078 27.4122 13.5078 23.994C13.5078 20.5758 13.52 20.1726 13.5814 18.8233C13.6384 17.5753 13.847 16.8979 14.0222 16.4467C14.2542 15.8494 14.532 15.4227 14.98 14.9747C15.428 14.5267 15.8547 14.2494 16.4521 14.0168C16.9033 13.8408 17.5809 13.6328 18.8289 13.5755C20.0097 13.5222 20.4673 13.5062 22.8529 13.5035V13.5067ZM30.8338 15.632C29.9858 15.632 29.2978 16.3193 29.2978 17.1675C29.2978 18.0155 29.9858 18.7035 30.8338 18.7035C31.6818 18.7035 32.3698 18.0155 32.3698 17.1675C32.3698 16.3195 31.6818 15.632 30.8338 15.632ZM24.0012 17.4267C20.371 17.4267 17.4278 20.37 17.4278 24.0001C17.4278 27.6303 20.371 30.5722 24.0012 30.5722C27.6314 30.5722 30.5735 27.6303 30.5735 24.0001C30.5735 20.37 27.6314 17.4267 24.0012 17.4267Z" />
<path  d="M24.0012 19.7334C26.3575 19.7334 28.2679 21.6436 28.2679 24.0001C28.2679 26.3564 26.3575 28.2668 24.0012 28.2668C21.6446 28.2668 19.7345 26.3564 19.7345 24.0001C19.7345 21.6436 21.6446 19.7334 24.0012 19.7334Z" />
</symbol>
                    

                
<symbol  viewBox="0 0 32 32" id="telegram">
  <path d="M16 0.5c-8.563 0-15.5 6.938-15.5 15.5s6.938 15.5 15.5 15.5c8.563 0 15.5-6.938 15.5-15.5s-6.
  938-15.5-15.5-15.5zM23.613 11.119l-2.544 11.988c-0.188 0.85-0.694 1.056-1.4 0.656l-3.875-2.856-1.869 
  1.8c-0.206 0.206-0.381 0.381-0.781 0.381l0.275-3.944 7.181-6.488c0.313-0.275-0.069-0.431-0.482-0.156l-8
  .875 5.587-3.825-1.194c-0.831-0.262-0.85-0.831 0.175-1.231l14.944-5.763c0.694-0.25 1.3 0.169 1.075 1.219z"/>
</symbol>

                    
<symbol viewBox="0 0 448 512" id="twitter">
<path d="M400 
32H48C21.5 32 0 53.5 0 80v352c0 26.5 21.5 48 48 48h352c26.5 0 48-21.5 48-48V80c0-26.5-21.5-48-48-48zm-48.9 
158.8c.2 2.8.2 5.7.2 8.5 0 86.7-66 186.6-186.6 186.6-37.2 0-71.7-10.8-100.7-29.4 5.3.6 10.4.8 15.8.8 30.7 0 
58.9-10.4 81.4-28-28.8-.6-53-19.5-61.3-45.5 10.1 1.5 19.2 1.5 29.6-1.2-30-6.1-52.5-32.5-52.5-64.4v-.8c8.7 4.9 
18.9 7.9 29.6 8.3a65.447 65.447 0 0 1-29.2-54.6c0-12.2 3.2-23.4 8.9-33.1 32.3 39.8 80.8 65.8 135.2 68.6-9.3-44.5 
24-80.6 64-80.6 18.9 0 35.9 7.9 47.9 20.7 14.8-2.8 29-8.3 41.6-15.8-4.9 15.2-15.2 28-28.8 36.1 13.2-1.4 26-5.1 
37.8-10.2-8.9 13.1-20.1 24.7-32.9 34z" />
</symbol>



<symbol  viewBox="0 0 24 24" id="home"><path d="M8,11a1,1,0,0,1,1-1h6a1,1,0,0,1,0,2H9A1,1,0,0,1,8,11ZM21.832,9.555A1,1,0,0,1,21,10H20V21a1,1,0,0,1-.293.707,60.628,60.628,0,0,1-.318.214A.99.99,0,0,1,19,22H5a1,1,0,0,1-1-1V10H3a1.054,1.054,0,0,1-.829-.441l0,0a1,1,0,0,1,.278-1.387L6,5.8V3A1,1,0,0,1,8,3V4.465l3.445-2.3h0A1,1,0,0,1,12,2h0a1,1,0,0,1,.555.168l8.249,5.5.75.5A1,1,0,0,1,21.832,9.555ZM14,16H10v4h4Zm4-7.8-6-4-6,4V20H8V15a1,1,0,0,1,1-1h6a1,1,0,0,1,1,1v5h2Z" />
</symbol>


<symbol  viewBox="0 0 192 192" id="gallery"> <path  d="M170 160a6 6 0 1 0 0-12v12Zm-148-6h-6a6.002 6.002 0 0 0 6 
6v-6Zm0-68v-6a6 6 0 0 0-6 6h6Zm154-48a6 6 0 1 0-12 0h12Zm-12 92a6 6 0 1 0 12 0h-12ZM22 38v-6a6 
6 0 0 0-6 6h6Zm124 6a6 6 0 1 0 0-12v12ZM16 62a6 6 0 1 0 12 0H16Zm154 86H22v12h148v-12Zm-142 6V86H16v68h12ZM164
 38v92h12V38h-12ZM22 44h124V32H22v12Zm-6-6v24h12V38H16Zm6 54c34.242 0 62 27.758 62 62h12c0-40.869-33.
 13-74-74-74v12Z" />
</symbol>

<symbol viewBox="0 0 24 24"  id="arrow-down">
<path d="M12 20L12 4M12 20L6 14M12 20L18 14" stroke="#000000" stroke-width="1.5" stroke-linecap="round" stroke-linejoin="round"/>
</symbol>


<symbol  viewBox="0 0 24 24" id="arrow-left" >
<path d="M4 12L20 12M4 12L10 6M4 12L10 18" stroke="#000000" stroke-width="1.5" stroke-linecap="round" stroke-linejoin="round"/>
</symbol>


</svg>